<svg id="visual" viewBox="0 0 900 600" width="900" height="600" xmlns="http://www.w3.org/2000/svg" xmlns:xlink="http://www.w3.org/1999/xlink" version="1.1"><rect x="0" y="0" width="900" height="600" fill="#fffdff"></rect><defs><linearGradient id="grad1_0" x1="33.3%" y1="0%" x2="100%" y2="100%"><stop offset="20%" stop-color="#fffdff" stop-opacity="1"></stop><stop offset="80%" stop-color="#fffdff" stop-opacity="1"></stop></linearGradient></defs><defs><linearGradient id="grad2_0" x1="0%" y1="0%" x2="66.7%" y2="100%"><stop offset="20%" stop-color="#fffdff" stop-opacity="1"></stop><stop offset="80%" stop-color="#fffdff" stop-opacity="1"></stop></linearGradient></defs><g transform="translate(900, 0)"><path d="M0 486.7C-58.5 459.7 -117 432.7 -167.2 403.7C-217.5 374.8 -259.4 343.8 -309.7 309.7C-360 275.6 -418.8 238.4 -449.7 186.3C-480.6 134.1 -483.7 67.1 -486.7 0L0 0Z" fill="#F5ECFF"></path></g><g transform="translate(0, 600)"><path d="M0 -486.7C59.6 -458.5 119.2 -430.3 164.2 -396.3C209.2 -362.4 239.5 -322.9 290.6 -290.6C341.7 -258.4 413.6 -233.5 449.7 -186.3C485.8 -139.1 486.3 -69.5 486.7 0L0 0Z" fill="#F5ECFF"></path></g></svg>