<svg id="visual" viewBox="0 0 900 600" width="900" height="600" xmlns="http://www.w3.org/2000/svg" xmlns:xlink="http://www.w3.org/1999/xlink" version="1.1"><rect x="0" y="0" width="900" height="600" fill="#fffdff"></rect><defs><linearGradient id="grad1_0" x1="33.3%" y1="0%" x2="100%" y2="100%"><stop offset="20%" stop-color="#fffdff" stop-opacity="1"></stop><stop offset="80%" stop-color="#fffdff" stop-opacity="1"></stop></linearGradient></defs><defs><linearGradient id="grad2_0" x1="0%" y1="0%" x2="66.7%" y2="100%"><stop offset="20%" stop-color="#fffdff" stop-opacity="1"></stop><stop offset="80%" stop-color="#fffdff" stop-opacity="1"></stop></linearGradient></defs><g transform="translate(900, 0)"><path d="M0 486.7C-73.1 489 -146.3 491.2 -186.3 449.7C-226.3 408.2 -233.2 323 -276.5 276.5C-319.8 230 -399.6 222.2 -440.7 182.5C-481.8 142.9 -484.3 71.5 -486.7 0L0 0Z" fill="#587989"></path></g><g transform="translate(0, 600)"><path d="M0 -486.7C70.5 -486.7 140.9 -486.7 186.3 -449.7C231.6 -412.7 251.9 -338.6 289.9 -289.9C327.9 -241.2 383.7 -217.8 419.4 -173.7C455.2 -129.6 471 -64.8 486.7 0L0 0Z" fill="#587989"></path></g></svg>