<svg id="visual" viewBox="0 0 960 540" width="960" height="540" xmlns="http://www.w3.org/2000/svg" xmlns:xlink="http://www.w3.org/1999/xlink" version="1.1"><rect x="0" y="0" width="960" height="540" fill="#002233"></rect><path d="M0 400L26.7 402.3C53.3 404.7 106.7 409.3 160 413.7C213.3 418 266.7 422 320 409.2C373.3 396.3 426.7 366.7 480 365.2C533.3 363.7 586.7 390.3 640 387.7C693.3 385 746.7 353 800 337.2C853.3 321.3 906.7 321.7 933.3 321.8L960 322L960 541L933.3 541C906.7 541 853.3 541 800 541C746.7 541 693.3 541 640 541C586.7 541 533.3 541 480 541C426.7 541 373.3 541 320 541C266.7 541 213.3 541 160 541C106.7 541 53.3 541 26.7 541L0 541Z" fill="#0066FF" stroke-linecap="round" stroke-linejoin="miter"></path></svg>